<mxfile host="app.diagrams.net" modified="2023-10-26T12:00:32.102Z" agent="Mozilla/5.0 (Macintosh; Intel Mac OS X 10_15_7) AppleWebKit/537.36 (KHTML, like Gecko) Chrome/117.0.0.0 Safari/537.36" etag="zFIjZq7R1pWc76AaW_op" version="22.0.8" type="device">
  <diagram name="Page-1" id="ieULr0snP64LHfNisZxe">
    <mxGraphModel dx="1306" dy="689" grid="1" gridSize="10" guides="1" tooltips="1" connect="1" arrows="1" fold="1" page="1" pageScale="1" pageWidth="850" pageHeight="1100" math="0" shadow="0">
      <root>
        <mxCell id="0" />
        <mxCell id="1" parent="0" />
        <mxCell id="LWZXz2t-0ZHRUsBnLQeO-1" value="Cult-Api&lt;br&gt;(Elite and Play Packs)" style="rounded=0;whiteSpace=wrap;html=1;" parent="1" vertex="1">
          <mxGeometry x="160" y="90" width="120" height="60" as="geometry" />
        </mxCell>
        <mxCell id="LWZXz2t-0ZHRUsBnLQeO-2" value="GymFit&lt;br&gt;(Gym and PT Packs)" style="rounded=0;whiteSpace=wrap;html=1;" parent="1" vertex="1">
          <mxGeometry x="170" y="220" width="120" height="60" as="geometry" />
        </mxCell>
        <mxCell id="LWZXz2t-0ZHRUsBnLQeO-3" value="Albus&lt;br&gt;(Transform and Bottcamp packs)" style="rounded=0;whiteSpace=wrap;html=1;" parent="1" vertex="1">
          <mxGeometry x="170" y="340" width="120" height="60" as="geometry" />
        </mxCell>
        <mxCell id="LWZXz2t-0ZHRUsBnLQeO-4" value="Catalog Service&lt;br&gt;(Caching Layer)" style="rounded=0;whiteSpace=wrap;html=1;" parent="1" vertex="1">
          <mxGeometry x="430" y="230" width="120" height="60" as="geometry" />
        </mxCell>
        <mxCell id="LWZXz2t-0ZHRUsBnLQeO-7" value="" style="endArrow=classic;html=1;rounded=0;exitX=1;exitY=0.333;exitDx=0;exitDy=0;exitPerimeter=0;" parent="1" source="LWZXz2t-0ZHRUsBnLQeO-1" edge="1">
          <mxGeometry width="50" height="50" relative="1" as="geometry">
            <mxPoint x="281" y="114" as="sourcePoint" />
            <mxPoint x="480" y="110" as="targetPoint" />
          </mxGeometry>
        </mxCell>
        <mxCell id="LWZXz2t-0ZHRUsBnLQeO-8" value="" style="endArrow=classic;html=1;rounded=0;entryX=0.417;entryY=-0.033;entryDx=0;entryDy=0;entryPerimeter=0;" parent="1" target="LWZXz2t-0ZHRUsBnLQeO-4" edge="1">
          <mxGeometry width="50" height="50" relative="1" as="geometry">
            <mxPoint x="480" y="110" as="sourcePoint" />
            <mxPoint x="420" y="80" as="targetPoint" />
          </mxGeometry>
        </mxCell>
        <mxCell id="LWZXz2t-0ZHRUsBnLQeO-9" value="" style="endArrow=classic;html=1;rounded=0;entryX=-0.025;entryY=0.367;entryDx=0;entryDy=0;exitX=1;exitY=0.5;exitDx=0;exitDy=0;entryPerimeter=0;" parent="1" source="LWZXz2t-0ZHRUsBnLQeO-2" target="LWZXz2t-0ZHRUsBnLQeO-4" edge="1">
          <mxGeometry width="50" height="50" relative="1" as="geometry">
            <mxPoint x="210" y="280" as="sourcePoint" />
            <mxPoint x="260" y="230" as="targetPoint" />
          </mxGeometry>
        </mxCell>
        <mxCell id="LWZXz2t-0ZHRUsBnLQeO-10" value="" style="endArrow=classic;html=1;rounded=0;exitX=1;exitY=0.5;exitDx=0;exitDy=0;" parent="1" source="LWZXz2t-0ZHRUsBnLQeO-3" edge="1">
          <mxGeometry width="50" height="50" relative="1" as="geometry">
            <mxPoint x="250" y="400" as="sourcePoint" />
            <mxPoint x="500" y="370" as="targetPoint" />
          </mxGeometry>
        </mxCell>
        <mxCell id="LWZXz2t-0ZHRUsBnLQeO-11" value="" style="endArrow=classic;html=1;rounded=0;entryX=0.583;entryY=1;entryDx=0;entryDy=0;entryPerimeter=0;" parent="1" target="LWZXz2t-0ZHRUsBnLQeO-4" edge="1">
          <mxGeometry width="50" height="50" relative="1" as="geometry">
            <mxPoint x="500" y="370" as="sourcePoint" />
            <mxPoint x="500" y="300" as="targetPoint" />
          </mxGeometry>
        </mxCell>
        <mxCell id="LWZXz2t-0ZHRUsBnLQeO-12" value="Kronos" style="rounded=0;whiteSpace=wrap;html=1;" parent="1" vertex="1">
          <mxGeometry x="10" y="90" width="120" height="60" as="geometry" />
        </mxCell>
        <mxCell id="LWZXz2t-0ZHRUsBnLQeO-13" value="" style="endArrow=none;dashed=1;html=1;dashPattern=1 3;strokeWidth=2;rounded=0;" parent="1" edge="1">
          <mxGeometry width="50" height="50" relative="1" as="geometry">
            <mxPoint x="150" y="550" as="sourcePoint" />
            <mxPoint x="150" y="48" as="targetPoint" />
          </mxGeometry>
        </mxCell>
        <mxCell id="LWZXz2t-0ZHRUsBnLQeO-14" value="Pack Creation UI" style="text;html=1;align=center;verticalAlign=middle;resizable=0;points=[];autosize=1;strokeColor=none;fillColor=none;" parent="1" vertex="1">
          <mxGeometry x="15" y="48" width="110" height="30" as="geometry" />
        </mxCell>
        <mxCell id="LWZXz2t-0ZHRUsBnLQeO-15" value="Gymfit Admin Portal" style="rounded=0;whiteSpace=wrap;html=1;" parent="1" vertex="1">
          <mxGeometry x="15" y="220" width="120" height="60" as="geometry" />
        </mxCell>
        <mxCell id="LWZXz2t-0ZHRUsBnLQeO-16" value="Directly from backend" style="rounded=0;whiteSpace=wrap;html=1;" parent="1" vertex="1">
          <mxGeometry x="15" y="340" width="120" height="60" as="geometry" />
        </mxCell>
        <mxCell id="LWZXz2t-0ZHRUsBnLQeO-17" value="" style="endArrow=classic;html=1;rounded=0;entryX=-0.008;entryY=0.65;entryDx=0;entryDy=0;entryPerimeter=0;" parent="1" target="LWZXz2t-0ZHRUsBnLQeO-1" edge="1">
          <mxGeometry width="50" height="50" relative="1" as="geometry">
            <mxPoint x="130" y="130" as="sourcePoint" />
            <mxPoint x="180" y="80" as="targetPoint" />
          </mxGeometry>
        </mxCell>
        <mxCell id="LWZXz2t-0ZHRUsBnLQeO-18" value="" style="endArrow=classic;html=1;rounded=0;exitX=1;exitY=0.5;exitDx=0;exitDy=0;" parent="1" source="LWZXz2t-0ZHRUsBnLQeO-15" edge="1">
          <mxGeometry width="50" height="50" relative="1" as="geometry">
            <mxPoint x="120" y="300" as="sourcePoint" />
            <mxPoint x="170" y="250" as="targetPoint" />
          </mxGeometry>
        </mxCell>
        <mxCell id="LWZXz2t-0ZHRUsBnLQeO-19" value="" style="endArrow=classic;html=1;rounded=0;exitX=1;exitY=0.5;exitDx=0;exitDy=0;" parent="1" source="LWZXz2t-0ZHRUsBnLQeO-16" edge="1">
          <mxGeometry width="50" height="50" relative="1" as="geometry">
            <mxPoint x="120" y="420" as="sourcePoint" />
            <mxPoint x="170" y="370" as="targetPoint" />
          </mxGeometry>
        </mxCell>
        <mxCell id="LWZXz2t-0ZHRUsBnLQeO-20" value="Cf-Api" style="rounded=0;whiteSpace=wrap;html=1;" parent="1" vertex="1">
          <mxGeometry x="620" y="130" width="120" height="60" as="geometry" />
        </mxCell>
        <mxCell id="LWZXz2t-0ZHRUsBnLQeO-21" value="Alfrad/Oms" style="rounded=0;whiteSpace=wrap;html=1;" parent="1" vertex="1">
          <mxGeometry x="620" y="250" width="120" height="60" as="geometry" />
        </mxCell>
        <mxCell id="LWZXz2t-0ZHRUsBnLQeO-23" value="" style="endArrow=classic;html=1;rounded=0;exitX=1.033;exitY=0.4;exitDx=0;exitDy=0;exitPerimeter=0;" parent="1" source="LWZXz2t-0ZHRUsBnLQeO-4" edge="1">
          <mxGeometry width="50" height="50" relative="1" as="geometry">
            <mxPoint x="580" y="240" as="sourcePoint" />
            <mxPoint x="630" y="190" as="targetPoint" />
          </mxGeometry>
        </mxCell>
        <mxCell id="LWZXz2t-0ZHRUsBnLQeO-24" value="" style="endArrow=classic;html=1;rounded=0;exitX=1;exitY=0.5;exitDx=0;exitDy=0;" parent="1" source="LWZXz2t-0ZHRUsBnLQeO-4" edge="1">
          <mxGeometry width="50" height="50" relative="1" as="geometry">
            <mxPoint x="570" y="320" as="sourcePoint" />
            <mxPoint x="610" y="290" as="targetPoint" />
          </mxGeometry>
        </mxCell>
        <mxCell id="uOSwDE9Fb4c9q-glZwVM-1" value="Martha" style="rounded=0;whiteSpace=wrap;html=1;" parent="1" vertex="1">
          <mxGeometry x="15" y="450" width="120" height="60" as="geometry" />
        </mxCell>
        <mxCell id="uOSwDE9Fb4c9q-glZwVM-2" value="Diy-FulFillment-Service" style="rounded=0;whiteSpace=wrap;html=1;" parent="1" vertex="1">
          <mxGeometry x="180" y="450" width="120" height="60" as="geometry" />
        </mxCell>
        <mxCell id="uOSwDE9Fb4c9q-glZwVM-3" value="" style="endArrow=classic;html=1;rounded=0;exitX=1;exitY=0.5;exitDx=0;exitDy=0;" parent="1" source="uOSwDE9Fb4c9q-glZwVM-1" edge="1">
          <mxGeometry width="50" height="50" relative="1" as="geometry">
            <mxPoint x="130" y="530" as="sourcePoint" />
            <mxPoint x="180" y="480" as="targetPoint" />
          </mxGeometry>
        </mxCell>
        <mxCell id="uOSwDE9Fb4c9q-glZwVM-4" value="" style="endArrow=classic;html=1;rounded=0;exitX=1;exitY=0.5;exitDx=0;exitDy=0;" parent="1" source="uOSwDE9Fb4c9q-glZwVM-2" edge="1">
          <mxGeometry width="50" height="50" relative="1" as="geometry">
            <mxPoint x="350" y="480" as="sourcePoint" />
            <mxPoint x="500" y="480" as="targetPoint" />
          </mxGeometry>
        </mxCell>
        <mxCell id="uOSwDE9Fb4c9q-glZwVM-5" value="" style="endArrow=classic;html=1;rounded=0;" parent="1" edge="1">
          <mxGeometry width="50" height="50" relative="1" as="geometry">
            <mxPoint x="500" y="480" as="sourcePoint" />
            <mxPoint x="500" y="370" as="targetPoint" />
          </mxGeometry>
        </mxCell>
        <mxCell id="wWn-Gf3Mjc4U6XNHxAU6-1" value="Ops" style="rounded=0;whiteSpace=wrap;html=1;" vertex="1" parent="1">
          <mxGeometry x="30" y="610" width="120" height="60" as="geometry" />
        </mxCell>
        <mxCell id="wWn-Gf3Mjc4U6XNHxAU6-2" value="Ui" style="text;html=1;align=center;verticalAlign=middle;resizable=0;points=[];autosize=1;strokeColor=none;fillColor=none;" vertex="1" parent="1">
          <mxGeometry x="45" y="588" width="30" height="30" as="geometry" />
        </mxCell>
        <mxCell id="wWn-Gf3Mjc4U6XNHxAU6-3" value="pack pack managment service" style="rounded=0;whiteSpace=wrap;html=1;" vertex="1" parent="1">
          <mxGeometry x="250" y="610" width="120" height="60" as="geometry" />
        </mxCell>
        <mxCell id="wWn-Gf3Mjc4U6XNHxAU6-4" value="" style="endArrow=classic;html=1;rounded=0;exitX=1;exitY=0.5;exitDx=0;exitDy=0;" edge="1" parent="1" source="wWn-Gf3Mjc4U6XNHxAU6-1">
          <mxGeometry width="50" height="50" relative="1" as="geometry">
            <mxPoint x="200" y="690" as="sourcePoint" />
            <mxPoint x="250" y="640" as="targetPoint" />
          </mxGeometry>
        </mxCell>
        <mxCell id="wWn-Gf3Mjc4U6XNHxAU6-5" value="APP/WEB" style="rounded=0;whiteSpace=wrap;html=1;" vertex="1" parent="1">
          <mxGeometry x="540" y="610" width="120" height="60" as="geometry" />
        </mxCell>
        <mxCell id="wWn-Gf3Mjc4U6XNHxAU6-6" value="caching" style="rounded=0;whiteSpace=wrap;html=1;" vertex="1" parent="1">
          <mxGeometry x="330" y="630" width="120" height="60" as="geometry" />
        </mxCell>
        <mxCell id="wWn-Gf3Mjc4U6XNHxAU6-7" value="" style="endArrow=classic;html=1;rounded=0;exitX=1;exitY=0.25;exitDx=0;exitDy=0;" edge="1" parent="1" source="wWn-Gf3Mjc4U6XNHxAU6-6">
          <mxGeometry width="50" height="50" relative="1" as="geometry">
            <mxPoint x="490" y="680" as="sourcePoint" />
            <mxPoint x="540" y="630" as="targetPoint" />
          </mxGeometry>
        </mxCell>
      </root>
    </mxGraphModel>
  </diagram>
</mxfile>
